# xmcd
#
# Track frame offsets:
#	150
#	13923
#	23392
#	36898
#	49333
#	68290
#	80948
#	91193
#	103922
#	121234
#
# Disc length: 1907 seconds
#
# Revision: 1
# Processed by: cddbd v1.5.2PL0 Copyright (c) Steve Scherf et al.
# Submitted via: audiograbber 1.83.01
#
DISCID=7807710a
DTITLE=The Dadds - Idées Choc and Propos Chic
DYEAR=2009
DGENRE=garage rock
TTITLE0=De Musica Mediocrita
TTITLE1=Comme Quoi Parfois La Démographie...
TTITLE2=Les Filles, Le Jerk and Les Motos
TTITLE3=Sexe À Pile
TTITLE4=London Eye
TTITLE5=L'Amour Avec Fénelon
TTITLE6=Passe-moi Ton Carnet
TTITLE7=Le Bel Incompris
TTITLE8=Ibère Hiatus
TTITLE9=Are You Waiting For Me?
EXTD=
EXTT0=
EXTT1=
EXTT2=
EXTT3=
EXTT4=
EXTT5=
EXTT6=
EXTT7=
EXTT8=
EXTT9=
PLAYORDER=
